<svg xmlns="http://www.w3.org/2000/svg" viewBox="0 0 400 400" width="400" height="400"><defs></defs><g>
  <g stroke="#FF8A1F" stroke-width="9" stroke-linecap="round" fill="none"><path d="M172 340 v36 M172 376 l-16 8 M172 376 l16 8 M172 376 v10"/><path d="M228 340 v36 M228 376 l-16 8 M228 376 l16 8 M228 376 v10"/></g>
  <circle cx="200" cy="230" r="112" fill="#FFD23F" stroke="#23285B" stroke-width="5" stroke-linejoin="round" stroke-linecap="round"/>
  <path d="M184 120 Q176 88 160 82 Q184 80 194 104 Q196 78 214 70 Q212 96 208 120 Z" fill="#FFD23F" stroke="#23285B" stroke-width="5" stroke-linejoin="round" stroke-linecap="round"/>
  <g transform="rotate(-24 100 250)"><ellipse cx="100" cy="250" rx="26" ry="46" fill="#FFC21A" stroke="#23285B" stroke-width="5" stroke-linejoin="round" stroke-linecap="round"/></g>
  <g transform="rotate(24 300 250)"><ellipse cx="300" cy="250" rx="26" ry="46" fill="#FFC21A" stroke="#23285B" stroke-width="5" stroke-linejoin="round" stroke-linecap="round"/></g>
  <ellipse cx="200" cy="268" rx="62" ry="50" fill="#FFF0A8"/>
  <circle cx="162" cy="200" r="14" fill="#fff" stroke="#23285B" stroke-width="4" stroke-linejoin="round" stroke-linecap="round"/><circle cx="163" cy="201" r="8.12" fill="#23285B"/><circle cx="165.92" cy="196.5" r="2.8000000000000003" fill="#fff"/><circle cx="238" cy="200" r="14" fill="#fff" stroke="#23285B" stroke-width="4" stroke-linejoin="round" stroke-linecap="round"/><circle cx="239" cy="201" r="8.12" fill="#23285B"/><circle cx="241.92" cy="196.5" r="2.8000000000000003" fill="#fff"/>
    <ellipse cx="148" cy="238" rx="13" ry="8" fill="#FF8FA3" opacity=".75"/><ellipse cx="252" cy="238" rx="13" ry="8" fill="#FF8FA3" opacity=".75"/>
    
  <path d="M176 232 Q200 222 224 232 Q216 258 200 262 Q184 258 176 232 Z" fill="#FF8A1F" stroke="#23285B" stroke-width="4" stroke-linejoin="round" stroke-linecap="round"/>
  <path d="M184 246 Q200 252 216 246" fill="none" stroke="#23285B" stroke-width="3"/></g></svg>